<svg height="512pt" viewBox="0 0 512 512" width="512pt" xmlns="http://www.w3.org/2000/svg"><path d="m117.476562 53.738281 53.738282-53.738281h-171.214844v171.214844l53.832031-53.832032 116.605469 115.6875 41.8125-85.457031zm0 0" fill="#8bf2cf"/><path d="m191.542969 385.089844-21.105469-106.160156-116.605469 115.6875-53.832031-53.832032v171.214844h171.214844l-53.726563-53.726562zm0 0" fill="#8bf2cf"/><path d="m458.167969 394.617188-116.605469-115.6875-21.105469 106.160156 74.054688 73.183594-53.726563 53.726562h171.214844v-171.214844zm0 0" fill="#57d9ad"/><path d="m340.785156 0 53.738282 53.738281-94.773438 93.875 41.8125 85.457031 116.605469-115.6875 53.832031 53.832032v-171.214844zm0 0" fill="#57d9ad"/><path d="m256 120c-33.085938 0-60-26.914062-60-60s26.914062-60 60-60 60 26.914062 60 60-26.914062 60-60 60zm0 0" fill="#ffbfab"/><path d="m256 0v120c33.085938 0 60-26.914062 60-60s-26.914062-60-60-60zm0 0" fill="#ffa78f"/><path d="m256 120c-49.628906 0-90 40.371094-90 90v182h45v120h90v-120h45v-182c0-49.628906-40.371094-90-90-90zm0 0" fill="#725d57"/><path d="m346 210v182h-45v120h-45v-392c49.628906 0 90 40.371094 90 90zm0 0" fill="#53433f"/></svg>