<?xml version="1.0" encoding="iso-8859-1"?>
<!-- Generator: Adobe Illustrator 19.0.0, SVG Export Plug-In . SVG Version: 6.00 Build 0)  -->
<svg version="1.1" id="Capa_1" xmlns="http://www.w3.org/2000/svg" xmlns:xlink="http://www.w3.org/1999/xlink" x="0px" y="0px"
	 viewBox="0 0 512 512" style="enable-background:new 0 0 512 512;" xml:space="preserve">
<circle style="fill:#455A64;" cx="181.333" cy="53.333" r="53.333"/>
<path style="fill:#607D8B;" d="M260.587,174.699c-3.346-26.684-26.035-46.703-52.928-46.699h-52.651
	c-26.9-0.003-49.592,20.027-52.928,46.72l-8.661,69.291c-0.731,5.846,3.416,11.177,9.261,11.907
	c0.466,0.058,0.936,0.086,1.405,0.082h154.667c5.891,0.046,10.703-4.693,10.749-10.584c0.004-0.47-0.024-0.939-0.082-1.405
	L260.587,174.699z"/>
<g>
	<path style="fill:#ECEFF1;" d="M181.333,170.667c-5.891,0-10.667-4.776-10.667-10.667v-21.333c0-5.891,4.776-10.667,10.667-10.667
		c5.891,0,10.667,4.776,10.667,10.667V160C192,165.891,187.224,170.667,181.333,170.667z"/>
	<path style="fill:#ECEFF1;" d="M181.333,256c-5.891,0-10.667-4.776-10.667-10.667v-42.667c0-5.891,4.776-10.667,10.667-10.667
		c5.891,0,10.667,4.776,10.667,10.667v42.667C192,251.224,187.224,256,181.333,256z"/>
</g>
<path style="fill:#CFD8DC;" d="M466.624,302.229c-2.024-2.267-4.919-3.563-7.957-3.563H53.333
	c-5.891-0.037-10.697,4.708-10.734,10.599c-0.003,0.422,0.02,0.843,0.067,1.262l21.333,192c0.611,5.42,5.212,9.506,10.667,9.472
	h362.667c5.454,0.034,10.056-4.052,10.667-9.472l21.333-192C469.655,307.502,468.67,304.482,466.624,302.229z"/>
<path style="fill:#FFC107;" d="M373.333,192C343.878,192,320,215.878,320,245.333c0,5.891,4.776,10.667,10.667,10.667H416
	c5.891,0,10.667-4.776,10.667-10.667C426.667,215.878,402.789,192,373.333,192z"/>
<path style="fill:#FFA000;" d="M373.333,213.333c-5.891,0-10.667-4.776-10.667-10.667v-21.333c0-5.891,4.776-10.667,10.667-10.667
	c5.891,0,10.667,4.776,10.667,10.667v21.333C384,208.558,379.224,213.333,373.333,213.333z"/>
<path style="fill:#90A4AE;" d="M469.333,234.667H42.667C19.103,234.667,0,253.769,0,277.333S19.103,320,42.667,320h426.667
	C492.898,320,512,300.897,512,277.333S492.898,234.667,469.333,234.667z"/>
<g>
</g>
<g>
</g>
<g>
</g>
<g>
</g>
<g>
</g>
<g>
</g>
<g>
</g>
<g>
</g>
<g>
</g>
<g>
</g>
<g>
</g>
<g>
</g>
<g>
</g>
<g>
</g>
<g>
</g>
</svg>
